<?xml version="1.0" encoding="utf-8"?>
<!-- Generator: Adobe Illustrator 16.0.0, SVG Export Plug-In . SVG Version: 6.00 Build 0)  -->
<!DOCTYPE svg PUBLIC "-//W3C//DTD SVG 1.1//EN" "http://www.w3.org/Graphics/SVG/1.1/DTD/svg11.dtd">
<svg version="1.1" id="Layer_1" xmlns="http://www.w3.org/2000/svg" xmlns:xlink="http://www.w3.org/1999/xlink" x="0px" y="0px"
	 width="400px" height="400px" viewBox="0 0 400 400" enable-background="new 0 0 400 400" xml:space="preserve">
<path fill="none" stroke="#231F20" stroke-miterlimit="10" d="M143.399,87.522c4.428,4.825,16.681,4.464,22.793,4.936
	c7.09,0.547,14.462-0.009,21.581-0.01c5.789-0.001,11.642-0.183,16.242-3.843c6.014-4.785-1.446-6.939-6.32-8.471
	c-9.282-2.918-20.912-2.786-30.5-1.108c-5.315,0.93-10.856,0.822-15.915,2.693c-6.449,2.387-7.973,4.784-5.061,11.254
	c5.041,11.201,8.396,24.066,9.385,36.42c0.934,11.679-6.739,17.999-13.782,25.086c-6.257,6.297-15.139,18.198-10.641,28.057
	c2.791,6.118,14.212,2.207,19.946,2.51c11.927,0.63,23.793,0.598,35.6-0.372c12.485-1.025,23.282,2.705,35.398,3.868
	c5.421,0.521,12.135-1.779,16.358-4.856c2.402-1.75,4.375-3.911,6.787-5.66c1.426-1.034,3.719-1.487,4.568-3.288
	c1.812-3.842-1.267-12.875-2.539-16.293c-1.788-4.807-2.963-10.469-7.459-13.777c-5.104-3.757-11.011-5.762-16.158-9.362
	c-4.945-3.458-9.021-6.889-10.852-12.673c-1.875-5.927-3.538-12.17-5.406-18.044c-2.073-6.515-1.421-12.39,0.013-18.545"/>
</svg>
